<svg width="20" height="17" viewBox="0 0 20 17" fill="none" xmlns="http://www.w3.org/2000/svg">
<path d="M0.833252 11.0834C0.833252 9.14302 1.85349 7.44094 3.3868 6.48435C3.80383 3.20335 6.60564 0.666687 9.99992 0.666687C13.3942 0.666687 16.196 3.20335 16.613 6.48435C18.1463 7.44094 19.1666 9.14302 19.1666 11.0834C19.1666 13.9347 16.9634 16.2714 14.1666 16.4843L5.83325 16.5C3.0364 16.2714 0.833252 13.9347 0.833252 11.0834ZM14.0402 14.8224C15.9847 14.6744 17.4999 13.0468 17.4999 11.0834C17.4999 9.77252 16.8236 8.58019 15.7308 7.89844L15.0594 7.47952L14.9597 6.6945C14.6445 4.21505 12.5239 2.33335 9.99992 2.33335C7.47589 2.33335 5.35531 4.21505 5.04017 6.6945L4.94039 7.47952L4.26899 7.89844C3.17622 8.58019 2.49992 9.77252 2.49992 11.0834C2.49992 13.0468 4.01519 14.6744 5.95967 14.8224L6.10409 14.8334H13.8958L14.0402 14.8224ZM10.8333 9.00002H13.3333L9.99992 13.1667L6.66659 9.00002H9.16659V5.66669H10.8333V9.00002Z" fill="#9747FF"/>
</svg>
