<svg width="19" height="18" viewBox="0 0 19 18" fill="none" xmlns="http://www.w3.org/2000/svg">
<path d="M8.99984 17.3333C4.39746 17.3333 0.666504 13.6023 0.666504 8.99996C0.666504 4.39758 4.39746 0.666626 8.99984 0.666626C11.7259 0.666626 14.1463 1.97561 15.6667 3.99932L13.4089 3.99938C12.2338 2.96245 10.6903 2.33329 8.99984 2.33329C5.31794 2.33329 2.33317 5.31806 2.33317 8.99996C2.33317 12.6819 5.31794 15.6666 8.99984 15.6666C10.6907 15.6666 12.2345 15.0371 13.4098 13.9998H15.6673C14.1469 16.024 11.7263 17.3333 8.99984 17.3333ZM14.8332 12.3333V9.83329H8.1665V8.16663H14.8332V5.66663L18.9998 8.99996L14.8332 12.3333Z" fill="#FF3737"/>
</svg>
