<svg width="20" height="18" viewBox="0 0 20 18" fill="none" xmlns="http://www.w3.org/2000/svg">
<path d="M2 16V2H7.58579L9.5858 4H18V16H2ZM19 2H10.4142L8.4142 0H1C0.44772 0 0 0.44772 0 1V17C0 17.5523 0.44772 18 1 18H19C19.5523 18 20 17.5523 20 17V3C20 2.44772 19.5523 2 19 2ZM13.0008 9.667L8.1219 6.41435C8.0562 6.37054 7.979 6.34717 7.9 6.34717C7.6791 6.34717 7.5 6.52625 7.5 6.74717V13.2524C7.5 13.3314 7.5234 13.4086 7.5672 13.4743C7.6897 13.6581 7.9381 13.7078 8.1219 13.5852L13.0008 10.3326C13.0447 10.3033 13.0824 10.2656 13.1117 10.2217C13.2343 10.0379 13.1846 9.7895 13.0008 9.667Z" fill="black"/>
</svg>
